<?xml version="1.0" encoding="UTF-8"?>
<svg width="64" height="64" version="1.1" viewBox="0 0 16.933 16.933" xmlns="http://www.w3.org/2000/svg">
 <circle cx="8.467" cy="8.47" r="8.4667" fill="#f9f9e3" stop-color="#000000" stroke-linecap="square" stroke-miterlimit="1.5" stroke-width=".5"/>
 <path d="m4.092 11.4c0.26728 0.5301 0.20916 1.4179 0.59395 1.8699 1.1895 1.3974 1.9365 2.1547 3.3447 2.5694 0.65558 0.1928 1.4659-0.0576 1.989-0.4975 0.8271-0.6956 0.8074-1.3278 1.0895-2.3711 0.2282-0.844 0.6482-2.4506 0.5147-3.1996-0.1124-0.63112-0.144-1.9503-0.3093-2.5367-0.1755-0.62272 0.128-0.97884-0.1835-1.411-0.5838-0.80984-1.8482-0.78848-2.9292-0.7042-1.3448 0.1048-3.0293 0.4308-3.8044 1.5348-0.41786 0.5952-0.13388 0.90428-0.14484 1.6005-0.0076 0.4854-0.0072 0.74548-0.53346 1.606-0.10232-0.1448-0.07108-1.4077-0.73002-1.3756-0.45164 0.02-0.10284 1.3041 0.018 1.7398 0.16588 0.5981 0.6048 1.4206 1.0848 1.1754z" fill="#efb9a1"/>
 <path d="m4.001 6.1s0.393-4.1148 4.7194-4.3848c4.7222-0.2948 3.2356 3.5427 3.2356 3.5427-2.6045-0.81844-5.5519-0.3812-7.955 0.84212z" fill="#1369b7"/>
 <path d="m10.719 4.96c0.3514 0.2812 0.6012 0.81352 0.6918 1.904l0.5454-1.6114c-0.4051-0.1272-0.8188-0.2244-1.2373-0.2924z" fill="#c67a83"/>
 <path d="m5.881 2.71c-1.3064 0.41264-1.996 0.86952-2.6877 2.0081-0.71149 1.1712-0.34128 2.4665-0.05064 3.794 0.0276 0.012 0.05204 0.028 0.0742 0.0464 0.10544-0.56604 0.5643-2.239 1.7611-2.9022-0.33356 0.1328-0.65997 0.28-0.97664 0.44124 0 0 0.20004-2.0888 1.8798-3.3876z" fill="#e1a8b9"/>
</svg>
